<?xml version="1.0" standalone="no"?>
<!DOCTYPE svg PUBLIC "-//W3C//DTD SVG 20010904//EN"
 "http://www.w3.org/TR/2001/REC-SVG-20010904/DTD/svg10.dtd">
<svg version="1.0" xmlns="http://www.w3.org/2000/svg"
 width="820.000000pt" height="512.000000pt" viewBox="0 0 820.000000 512.000000"
 preserveAspectRatio="xMidYMid meet">

<g transform="translate(0.000000,512.000000) scale(0.100000,-0.100000)"
fill="#000000" stroke="none">
<path d="M3940 4774 c-474 -44 -888 -215 -1238 -511 -217 -184 -417 -442 -544
-703 -52 -107 -123 -294 -139 -366 -9 -38 -15 -51 -22 -42 -5 8 -7 1 -3 -22 6
-32 5 -33 -8 -15 -9 11 -16 31 -17 45 -2 24 -2 24 -6 3 -2 -13 -9 -23 -14 -23
-6 0 -8 8 -5 18 3 9 8 31 12 47 10 44 -10 19 -24 -31 -15 -52 -15 -57 1 -48 6
4 5 -1 -4 -12 -57 -67 -85 -568 -45 -814 39 -242 102 -443 205 -655 332 -677
966 -1137 1711 -1240 153 -21 448 -21 600 0 649 91 1201 438 1567 985 254 379
390 866 369 1315 -6 120 -21 248 -25 207 0 -7 -6 -10 -11 -7 -6 4 -8 15 -5 25
8 24 -16 75 -27 58 -11 -18 -10 -30 2 -23 6 3 10 1 10 -4 0 -17 -18 -13 -29 7
-10 16 -10 15 -12 -3 0 -11 -11 27 -24 85 -93 427 -298 804 -599 1102 -332
330 -735 532 -1201 603 -99 15 -389 27 -475 19z m-400 -1459 l0 -95 -114 0
c-107 0 -117 -2 -143 -24 l-28 -24 -7 -209 c-8 -257 -17 -294 -91 -350 -23
-17 -54 -35 -69 -38 -16 -4 -28 -11 -28 -15 0 -4 12 -10 28 -13 49 -10 96 -50
125 -107 26 -54 27 -59 30 -255 2 -166 5 -205 20 -232 9 -17 23 -35 29 -40 7
-4 65 -10 128 -13 l115 -5 -1 -85 0 -85 -55 -3 c-43 -2 -217 10 -275 20 -6 1
-9 11 -6 22 4 21 4 21 -11 1 -15 -19 -15 -19 -55 7 -27 19 -49 45 -68 85 -29
58 -29 60 -34 298 -7 302 -9 306 -139 315 l-76 5 -3 86 -3 86 76 5 c80 5 107
20 128 68 6 14 13 132 16 265 6 231 7 242 31 289 53 104 132 134 353 135 l127
1 0 -95z m1474 69 c59 -21 116 -75 135 -129 9 -27 15 -120 20 -285 5 -213 8
-250 24 -273 23 -36 54 -47 129 -47 l61 0 -7 -67 c-8 -82 -23 -99 -90 -107
-78 -9 -116 -60 -116 -158 0 -75 -23 -239 -31 -226 -6 9 -9 9 -9 1 0 -6 5 -15
11 -18 13 -9 -60 -74 -83 -75 -10 0 -18 7 -18 16 0 12 -6 15 -20 10 -65 -20
-60 -25 -62 50 -3 126 3 289 13 325 16 63 50 102 116 135 l63 30 -55 23 c-62
26 -109 73 -126 128 -6 21 -14 128 -18 238 -6 205 -12 234 -51 255 -10 5 -68
10 -129 10 l-111 0 0 88 c0 49 3 92 8 97 13 14 293 -2 346 -21z m-3034 -274
c0 -5 -4 -10 -10 -10 -5 0 -10 5 -10 10 0 6 5 10 10 10 6 0 10 -4 10 -10z
m-31 -51 c1 13 4 22 7 18 4 -3 3 -18 0 -34 -6 -21 -9 -24 -17 -12 -5 7 -8 23
-8 34 1 16 2 16 9 -5 l8 -25 1 24z m2390 -3 c29 -8 56 -17 58 -20 3 -3 -1 -36
-9 -73 -16 -77 -14 -76 -113 -48 -78 22 -214 17 -268 -9 -87 -43 -89 -156 -4
-214 19 -12 85 -43 148 -68 190 -77 241 -111 282 -188 31 -59 30 -193 -1 -252
-54 -103 -162 -153 -350 -161 -157 -8 -332 28 -332 66 0 42 24 131 35 131 6 0
38 -9 71 -21 76 -26 232 -36 303 -19 98 23 139 86 108 163 -21 50 -72 83 -228
150 -74 32 -155 73 -180 92 -122 88 -134 280 -26 393 36 38 107 77 164 92 54
13 278 4 342 -14z m-2386 -106 c3 -34 2 -47 -3 -35 -8 19 -14 103 -6 94 2 -2
6 -29 9 -59z m14 38 c-3 -8 -6 -5 -6 6 -1 11 2 17 5 13 3 -3 4 -12 1 -19z m-7
-119 c0 -4 -7 -6 -15 -3 -8 4 -15 10 -15 15 0 4 7 6 15 3 8 -4 15 -10 15 -15z
m-13 -61 c-3 -8 -6 -5 -6 6 -1 11 2 17 5 13 3 -3 4 -12 1 -19z m3013 -848 c0
-5 -5 -10 -11 -10 -5 0 -7 5 -4 10 3 6 8 10 11 10 2 0 4 -4 4 -10z m-4 -57
c-6 -6 -36 9 -36 18 0 5 9 4 20 -3 10 -7 18 -14 16 -15z m-46 -3 c0 -5 -8 -10
-17 -11 -15 0 -15 -2 2 -9 25 -9 52 -40 37 -40 -6 0 -14 5 -17 10 -7 11 -58
14 -68 3 -4 -3 -2 -12 4 -20 9 -10 5 -15 -20 -24 -36 -13 -38 -20 -11 -37 28
-17 19 -28 -32 -38 -61 -11 -88 -12 -88 -3 0 5 -6 6 -14 3 -11 -4 -15 8 -18
53 -1 32 -2 70 0 85 l3 27 117 4 c64 1 118 4 120 5 1 1 2 -2 2 -8z m1249 -50
c-1 -15 -3 -19 -6 -10 -3 8 -10 17 -14 20 -5 3 -5 17 -2 30 6 22 7 23 14 4 4
-10 8 -30 8 -44z m-1209 30 c8 -5 11 -10 5 -10 -5 0 -17 5 -25 10 -8 5 -10 10
-5 10 6 0 17 -5 25 -10z"/>
<path d="M3156 1777 c3 -10 9 -15 12 -12 3 3 0 11 -7 18 -10 9 -11 8 -5 -6z"/>
<path d="M2006 3413 c-6 -14 -5 -15 5 -6 7 7 10 15 7 18 -3 3 -9 -2 -12 -12z"/>
<path d="M1967 3266 c-9 -24 -9 -28 3 -21 6 4 11 -8 11 -27 2 -27 3 -28 6 -8
2 14 0 36 -5 49 -7 21 -10 22 -15 7z"/>
<path d="M6280 3033 c0 -13 5 -23 10 -23 13 0 13 11 0 30 -8 12 -10 11 -10 -7z"/>
<path d="M6247 3026 c-14 -11 -15 -15 -3 -25 11 -9 15 -6 18 14 3 14 5 25 4
25 0 0 -9 -7 -19 -14z"/>
</g>
</svg>
